<svg xmlns="http://www.w3.org/2000/svg" version="1.1" width="512" height="512">
<path d="M0 0 C7.83446672 5.62157349 13.99574829 12.93026799 17.1875 22.125 C17.64682517 26.17840735 17.60360494 30.23555199 17.625 34.3125 C17.65787109 35.39853516 17.69074219 36.48457031 17.72460938 37.60351562 C17.79133334 47.70309805 14.63310748 54.80510234 8.0625 62.4375 C6.89847656 63.80841797 6.89847656 63.80841797 5.7109375 65.20703125 C4.87820313 66.16996094 4.04546875 67.13289063 3.1875 68.125 C1.81816447 69.73654112 0.45327983 71.35178118 -0.91137695 72.96728516 C-1.84864262 74.07619505 -2.78729267 75.18393625 -3.72729492 76.29052734 C-6.60782985 79.68334692 -9.44422215 83.10728352 -12.25 86.5625 C-16.20693418 91.42549424 -20.27685942 96.18200203 -24.36865234 100.93115234 C-28.16413367 105.34531766 -31.86527913 109.82833198 -35.53515625 114.34765625 C-38.55669944 118.03259143 -41.64285951 121.66068321 -44.72900391 125.29150391 C-47.60807843 128.68473475 -50.44461492 132.1077672 -53.25 135.5625 C-57.20229028 140.41978698 -61.26546873 145.17253939 -65.35546875 149.91357422 C-69.25569072 154.44508211 -73.04302196 159.05295521 -76.77734375 163.72265625 C-78.99527653 166.34075348 -81.35578773 168.73068042 -83.8125 171.125 C-84.38871094 171.69863281 -84.96492188 172.27226562 -85.55859375 172.86328125 C-102.25836819 188.40602744 -124.51090773 194.60311257 -146.8449707 194.52563477 C-148.29054831 194.53139521 -149.73612113 194.53848522 -151.1816864 194.54678345 C-154.26337962 194.56175313 -157.34490122 194.5676834 -160.42663002 194.56625557 C-165.30723608 194.56420143 -170.18761516 194.58392181 -175.06816101 194.60643005 C-184.5417241 194.64718518 -194.01526837 194.66596365 -203.48889923 194.68260193 C-215.56538328 194.70504093 -227.64181382 194.73863451 -239.71821088 194.78980106 C-244.56287445 194.80962753 -249.40741711 194.81929616 -254.25211966 194.82075322 C-257.26918604 194.82351592 -260.28618613 194.83437187 -263.30322456 194.84726334 C-264.69431184 194.85151854 -266.08541437 194.85241969 -267.47650528 194.84958839 C-279.34699695 194.82821065 -288.29998388 195.61255137 -297.8125 203.125 C-298.65941406 203.74117187 -299.50632812 204.35734375 -300.37890625 204.9921875 C-304.33347312 208.27218819 -306.59965474 210.46589849 -307.26953125 215.6875 C-307.21453731 218.28530903 -307.11109203 220.8825136 -306.9609375 223.4765625 C-306.60417535 232.24540066 -309.93170843 237.97588064 -315.38671875 244.60546875 C-317.32945553 246.62328714 -319.26143784 248.3980539 -321.38647461 250.20874023 C-326.15967865 254.36386503 -330.60455708 258.80871215 -335.0546875 263.3046875 C-335.90427032 264.15805695 -336.75385315 265.01142639 -337.62918091 265.89065552 C-340.3177412 268.5913433 -343.00301304 271.29526368 -345.6875 274 C-349.24455324 277.58357014 -352.80485333 281.16386787 -356.3671875 284.7421875 C-357.18484589 285.56814423 -358.00250427 286.39410095 -358.84494019 287.24508667 C-359.59977692 288.00322662 -360.35461365 288.76136658 -361.13232422 289.54248047 C-361.79658417 290.21197723 -362.46084412 290.881474 -363.14523315 291.57125854 C-366.26803956 294.48143083 -369.14357844 294.67012104 -373.2861414 294.56592655 C-376.24333384 294.04980637 -377.29848137 293.25430647 -379.47642517 291.22642517 C-380.16792601 290.58680784 -380.85942684 289.94719051 -381.57188225 289.28819084 C-385.77496674 285.23034837 -389.93805887 281.1378822 -394.06469727 277.00219727 C-395.06907926 275.99917334 -396.0736732 274.99636161 -397.07846069 273.9937439 C-399.78524551 271.29148513 -402.48889705 268.58611233 -405.19182706 265.87999845 C-408.03376381 263.03551299 -410.87815894 260.19348746 -413.72215271 257.35105896 C-418.49584786 252.57917821 -423.26744201 247.80520422 -428.0378418 243.0300293 C-433.53685623 237.52557366 -439.03946359 232.02472947 -444.54395062 226.52574688 C-449.28743324 221.7868162 -454.0289469 217.04592211 -458.76884884 212.30340999 C-461.5921129 209.47859459 -464.41602991 206.65444083 -467.24173164 203.83206367 C-469.8993439 201.17736047 -472.55445915 198.52018394 -475.2077446 195.86115646 C-476.63481279 194.43215605 -478.06431439 193.00558702 -479.49391174 191.57911682 C-483.35229379 187.70815271 -487.18530577 183.81460844 -490.88267517 179.78892517 C-491.42941863 179.19549285 -491.97616209 178.60206053 -492.53947353 177.99064541 C-494.58268146 174.99628387 -494.88583161 172.23769666 -494.62135315 168.67546082 C-493.61314174 165.49638722 -492.15834532 163.86252417 -489.87084961 161.44262695 C-489.05413788 160.57183502 -488.23742615 159.70104309 -487.39596558 158.80386353 C-486.54342194 157.91983856 -485.6908783 157.0358136 -484.8125 156.125 C-484.02013947 155.29712982 -483.22777893 154.46925964 -482.41140747 153.61630249 C-477.09893688 148.11581439 -471.70205205 142.69732133 -466.3112793 137.27368164 C-464.34845788 135.2974677 -462.39319517 133.31420645 -460.4440918 131.32446289 C-457.60334496 128.42456415 -454.74204675 125.54576266 -451.87890625 122.66796875 C-451.01818008 121.78457321 -450.15745392 120.90117767 -449.27064514 119.99101257 C-443.11655377 113.85802533 -437.06330597 109.87526866 -428.8125 107.125 C-427.95398438 107.18300781 -427.09546875 107.24101562 -426.2109375 107.30078125 C-422.6931298 107.45985524 -420.15979555 107.26316448 -416.8125 106.125 C-414.08128589 103.01864425 -412.22747669 99.74586922 -410.203125 96.16015625 C-396.30308768 71.72853189 -368.52797628 55.50232613 -342.1953125 47.96484375 C-316.38975347 41.55815184 -285.20423083 39.76961474 -260.28303528 50.66856384 C-255.06906947 52.6306672 -250.03727398 52.5501598 -244.5222168 52.52563477 C-243.41705719 52.53261383 -242.31189758 52.5395929 -241.17324829 52.54678345 C-237.53599335 52.56670553 -233.89902331 52.56625985 -230.26171875 52.56640625 C-227.72116843 52.57818589 -225.18062501 52.59155154 -222.64009094 52.60643005 C-215.27592692 52.64627494 -207.91183314 52.66596993 -200.54759216 52.68260193 C-190.54683771 52.70652486 -180.54621368 52.74632668 -170.54557228 52.79987907 C-166.8260591 52.81612522 -163.10667492 52.81997856 -159.38713074 52.82289124 C-157.08840722 52.83267515 -154.78968567 52.84293967 -152.4909668 52.85375977 C-151.46774826 52.85120682 -150.44452972 52.84865387 -149.39030457 52.84602356 C-140.44070126 52.90894437 -131.6117228 53.69300156 -123.5625 57.875 C-122.62921875 58.34421875 -121.6959375 58.8134375 -120.734375 59.296875 C-117.100539 61.57045154 -113.98983196 64.26049867 -110.8125 67.125 C-108.6217214 64.96156815 -106.43487594 62.79438036 -104.25 60.625 C-103.64091797 60.02429688 -103.03183594 59.42359375 -102.40429688 58.8046875 C-99.397985 55.81428204 -96.49627736 52.79740339 -93.75390625 49.5625 C-87.39701287 42.19746888 -80.25680191 35.51773482 -73.34619141 28.67919922 C-63.96066656 19.42896358 -63.96066656 19.42896358 -55.125 9.65966797 C-41.34111371 -6.45742824 -18.36331578 -11.69945242 0 0 Z M-41.75 26.3125 C-49.41489108 34.74548037 -57.40919252 42.79832359 -65.51266479 50.80575562 C-72.69382874 57.85591625 -72.69382874 57.85591625 -79.4453125 65.3125 C-81.9699245 68.2820247 -84.67215576 70.87115362 -87.58203125 73.46484375 C-98.40711326 82.53336187 -98.40711326 82.53336187 -103.64477539 95.06933594 C-103.74732821 97.19463019 -103.79099586 99.30594594 -103.78515625 101.43359375 C-103.82227455 106.44456413 -105.29870236 109.88238243 -107.8125 114.125 C-108.369375 115.135625 -108.92625 116.14625 -109.5 117.1875 C-115.93542457 125.36222851 -123.59471092 130.89204083 -133.8125 133.125 C-135.16619376 133.21158383 -136.52343834 133.25124564 -137.87989807 133.25198364 C-139.08065979 133.25621338 -139.08065979 133.25621338 -140.30567932 133.26052856 C-141.17490524 133.25850433 -142.04413116 133.2564801 -142.93969727 133.25439453 C-144.32322891 133.25702301 -144.32322891 133.25702301 -145.73471069 133.25970459 C-148.78279503 133.26410506 -151.83082133 133.26119168 -154.87890625 133.2578125 C-156.99592602 133.258486 -159.11294571 133.25945641 -161.22996521 133.26071167 C-165.66593157 133.26218615 -170.10187778 133.26004187 -174.5378418 133.25537109 C-180.22990043 133.24967048 -185.92191194 133.2529565 -191.61396885 133.25894356 C-195.9847601 133.26255293 -200.35554013 133.26140891 -204.72633171 133.25881577 C-206.8255406 133.25814772 -208.9247505 133.25897066 -211.02395821 133.26129532 C-213.95423211 133.26382834 -216.88442911 133.25997215 -219.81469727 133.25439453 C-221.12157249 133.25743088 -221.12157249 133.25743088 -222.45484924 133.26052856 C-225.82359038 133.24862008 -228.5942865 133.19773783 -231.8125 132.125 C-233.72432972 127.96185678 -234.36907545 123.53675493 -232.8125 119.1875 C-230.33059162 115.38707779 -229.15942588 115.17441132 -224.8125 114.125 C-221.92623814 113.86040008 -219.06118966 113.85451213 -216.16430664 113.86962891 C-215.31636032 113.86600845 -214.468414 113.862388 -213.59477234 113.85865784 C-211.7614709 113.85178739 -209.9281491 113.84925397 -208.09483528 113.85060501 C-205.18966559 113.8515735 -202.28486259 113.83859027 -199.37974548 113.82162476 C-191.1227398 113.77544692 -182.86577304 113.75074594 -174.60864258 113.74414062 C-169.55059864 113.73911961 -164.49293962 113.71484269 -159.43502617 113.67881393 C-157.51219432 113.66903262 -155.58930943 113.66667486 -153.66646004 113.67198563 C-150.97391865 113.6790747 -148.28252124 113.66173738 -145.59008789 113.63916016 C-144.8018161 113.64733261 -144.01354431 113.65550507 -143.2013855 113.66392517 C-136.98894095 113.5715636 -132.81358874 111.81018466 -128.10546875 107.59765625 C-124.17720091 102.58668561 -122.29616348 98.7271879 -122.50390625 92.23828125 C-123.43593537 85.85565146 -126.98784507 81.46937401 -131.73828125 77.3515625 C-138.20616395 73.5268635 -145.11791439 73.84691369 -152.40063477 73.88549805 C-154.1240786 73.88247681 -154.1240786 73.88247681 -155.88233948 73.87939453 C-158.3709597 73.87585661 -160.85958892 73.87660674 -163.34820747 73.88117027 C-167.29706649 73.88678006 -171.24574088 73.87806943 -175.19456482 73.8639679 C-186.42016284 73.82636914 -197.6456796 73.80798976 -208.87133789 73.81958008 C-215.07967878 73.82583187 -221.2877291 73.81403636 -227.4959988 73.78313476 C-230.77179739 73.76765899 -234.04690114 73.76421431 -237.3227253 73.77771568 C-250.93712572 73.83139513 -262.26710814 73.7853432 -274.8125 68.125 C-302.04471529 60.35921722 -333.71448801 63.62875692 -358.66992188 77.12988281 C-366.86452794 81.86020832 -374.02140125 87.53644279 -380.8125 94.125 C-381.48539063 94.72441406 -382.15828125 95.32382812 -382.8515625 95.94140625 C-389.46276239 102.03898703 -394.02211212 109.58602891 -398.8125 117.125 C-394.61720818 122.13119949 -390.24378848 126.83315221 -385.61376953 131.43725586 C-384.92038986 132.13078156 -384.22701019 132.82430725 -383.51261902 133.53884888 C-381.24254829 135.8082284 -378.9689667 138.07405495 -376.6953125 140.33984375 C-375.11183161 141.92145764 -373.52857279 143.50329389 -371.94552612 145.08534241 C-367.79509908 149.23196645 -363.6416768 153.37557751 -359.48760986 157.51855469 C-355.2425204 161.75338222 -351.0002895 165.9910712 -346.7578125 170.22851562 C-338.44549338 178.53013655 -330.13000511 186.82857522 -321.8125 195.125 C-318.56736214 193.59264372 -316.61167679 192.03643665 -314.1875 189.375 C-302.97948088 177.9390914 -288.87116679 174.17523849 -273.26823425 173.98696899 C-270.7051257 173.97554477 -268.14199062 173.96931836 -265.57885742 173.96728516 C-264.1585932 173.96260771 -262.73833045 173.95746264 -261.31806946 173.95188904 C-258.27508373 173.94067278 -255.23210742 173.93220776 -252.18910789 173.92576981 C-247.36694657 173.91501537 -242.54485355 173.89475182 -237.72273254 173.87265015 C-224.01562634 173.81097288 -210.30852562 173.75675907 -196.60131836 173.72363281 C-189.01892515 173.705229 -181.43664809 173.6762259 -173.85434037 173.6356281 C-169.85112365 173.61466356 -165.84805255 173.59911583 -161.84477806 173.59682083 C-158.07630736 173.59465752 -154.3081404 173.57861895 -150.5397625 173.55243111 C-148.51684107 173.54193216 -146.49386008 173.54596387 -144.47091675 173.5506134 C-133.57710765 173.45252152 -123.56063581 171.60108921 -113.8125 166.625 C-113.13735352 166.28098145 -112.46220703 165.93696289 -111.76660156 165.58251953 C-99.36180302 158.93394672 -90.60244854 147.83991577 -81.8125 137.125 C-81.03132813 136.17496094 -80.25015625 135.22492188 -79.4453125 134.24609375 C-77.99029546 132.46745192 -76.53843015 130.68622682 -75.08984375 128.90234375 C-72.06830056 125.21740857 -68.98214049 121.58931679 -65.89599609 117.95849609 C-63.01692157 114.56526525 -60.18038508 111.1422328 -57.375 107.6875 C-53.41806582 102.82450576 -49.34814058 98.06799797 -45.25634766 93.31884766 C-41.46086633 88.90468234 -37.75972087 84.42166802 -34.08984375 79.90234375 C-31.53045619 76.78103234 -28.92640695 73.70063556 -26.3125 70.625 C-9.45406376 53.37927043 -9.45406376 53.37927043 -2.57421875 31.8046875 C-3.17539777 25.04388741 -6.98292215 21.74014918 -11.875 17.54296875 C-14.97055415 15.27747246 -17.7661319 14.92387126 -21.5 14.8125 C-22.30824219 14.77511719 -23.11648438 14.73773438 -23.94921875 14.69921875 C-31.83005399 15.87113013 -36.67041649 20.54388134 -41.75 26.3125 Z M-439.7109375 140.828125 C-440.54589752 141.66591492 -441.38085754 142.50370483 -442.24111938 143.36688232 C-444.89466283 146.03157916 -447.54114915 148.70316186 -450.1875 151.375 C-451.99042348 153.1879595 -453.79380391 155.0004647 -455.59765625 156.8125 C-460.00791112 161.24475102 -464.41239961 165.68266922 -468.8125 170.125 C-467.86160439 171.24312749 -466.90945694 172.36019044 -465.95678711 173.47680664 C-465.4266954 174.09898575 -464.8966037 174.72116486 -464.35044861 175.36219788 C-461.80787302 178.27650699 -459.02714138 180.92957457 -456.25390625 183.62109375 C-454.29369651 185.63148486 -452.46647467 187.66654122 -450.63987732 189.79443359 C-446.96509784 194.00659687 -443.09497341 197.97711894 -439.13305664 201.91796875 C-438.40051666 202.65065475 -437.66797668 203.38334076 -436.91323853 204.13822937 C-434.51874337 206.53203418 -432.12073802 208.92228869 -429.72265625 211.3125 C-428.05092345 212.98236549 -426.37941295 214.65245357 -424.70811462 216.32275391 C-420.32918864 220.69787932 -415.94726684 225.06999207 -411.56469727 229.44146729 C-407.08492491 233.9109724 -402.60801593 238.38334363 -398.13085938 242.85546875 C-389.36086032 251.61477393 -380.58769113 260.37089653 -371.8125 269.125 C-368.00973563 265.90922269 -364.25513581 262.69251266 -360.72900391 259.17089844 C-360.01201324 258.45705994 -359.29502258 257.74322144 -358.55630493 257.00775146 C-357.80811493 256.25753723 -357.05992493 255.507323 -356.2890625 254.734375 C-355.10889053 253.55563812 -355.10889053 253.55563812 -353.90487671 252.35308838 C-352.25485453 250.70374288 -350.60607918 249.05314918 -348.95849609 247.40136719 C-346.4278924 244.86537193 -343.89195038 242.33480221 -341.35546875 239.8046875 C-339.74967894 238.19823753 -338.14419903 236.59147772 -336.5390625 234.984375 C-335.77872711 234.22606384 -335.01839172 233.46775269 -334.23501587 232.6864624 C-333.53693817 231.98523254 -332.83886047 231.28400269 -332.11962891 230.56152344 C-331.50342682 229.94452576 -330.88722473 229.32752808 -330.25234985 228.6918335 C-328.35107233 226.62287797 -327.84135337 225.27648019 -327.3125 222.5 C-328.46999665 214.68689759 -337.67807149 208.11516385 -343.1027832 202.70532227 C-343.90038559 201.90596756 -344.69798798 201.10661285 -345.51976013 200.28303528 C-348.13177357 197.66665398 -350.74738761 195.05390764 -353.36328125 192.44140625 C-355.18709178 190.61692163 -357.01075388 188.79228862 -358.83427429 186.96751404 C-362.64285782 183.15746076 -366.45318446 179.34916335 -370.26489258 175.54223633 C-374.6720319 171.14056112 -379.07552571 166.73526347 -383.47718936 162.32811314 C-387.72132208 158.07890235 -391.96825216 153.83250024 -396.21639061 149.58729362 C-398.02131821 147.78303438 -399.82549977 145.97802851 -401.62893105 144.17227364 C-404.13994491 141.65873267 -406.65412026 139.14839827 -409.16918945 136.63891602 C-409.91776215 135.88831909 -410.66633484 135.13772217 -411.43759155 134.36437988 C-412.12018539 133.68460587 -412.80277924 133.00483185 -413.50605774 132.30445862 C-414.09981862 131.71107476 -414.6935795 131.11769091 -415.30533314 130.50632572 C-417.43974494 128.55012698 -418.65488157 128.14291119 -421.5625 127.8125 C-429.25127555 128.55180534 -434.571389 135.62227936 -439.7109375 140.828125 Z " fill="#DFE2EB" transform="translate(494.8125,217.875)"/>
<path d="M0 0 C0.65880157 0.00054382 1.31760315 0.00108765 1.99636841 0.00164795 C12.94884998 0.0431051 23.0324326 0.91979187 33.4375 4.375 C34.0867041 4.58930664 34.7359082 4.80361328 35.40478516 5.02441406 C48.5667476 9.53314914 60.86233068 16.32435327 71.4375 25.375 C72.24703125 26.05175781 73.0565625 26.72851562 73.890625 27.42578125 C93.83589921 44.64846435 107.61046067 70.03333446 110.4375 96.375 C112.18124032 131.95517367 104.32463641 159.75589797 80.6875 187 C63.40028669 205.54106983 37.04922312 219.39869627 11.51416016 220.5012207 C-19.02701956 221.20808857 -47.01899877 216.14867756 -70.5625 195.375 C-71.79033203 194.34439453 -71.79033203 194.34439453 -73.04296875 193.29296875 C-94.73762429 174.62547445 -107.61955319 147.99131492 -110.15527344 119.56616211 C-112.34764272 89.88406935 -103.46746179 61.17813854 -84.19921875 38.37890625 C-83.32910156 37.38761719 -82.45898438 36.39632812 -81.5625 35.375 C-80.48935547 34.15103516 -80.48935547 34.15103516 -79.39453125 32.90234375 C-58.84036233 11.0370271 -29.64034025 -0.04143658 0 0 Z M-64.25 47.625 C-80.30505917 64.63857016 -89.74909477 87.44799127 -89.54003906 110.89404297 C-88.59080622 136.96858853 -78.49848229 159.13094638 -59.68359375 177.12890625 C-48.28556938 187.06992617 -36.0910945 193.3831178 -21.5625 197.375 C-20.89734375 197.55973877 -20.2321875 197.74447754 -19.546875 197.93481445 C2.87504265 203.59857869 26.99288474 198.8598033 46.73486328 187.42773438 C50.98059853 184.802611 54.71456754 181.68053316 58.4375 178.375 C59.11941406 177.83488281 59.80132812 177.29476562 60.50390625 176.73828125 C75.74660133 164.41884276 86.48639338 143.89866467 89.20605469 124.6015625 C91.95795582 98.12757694 86.3603104 74.59526396 69.73413086 53.53564453 C53.09894147 33.21005476 30.69149262 23.2656675 4.859375 20.671875 C-21.15654958 18.41478565 -45.61057773 30.30130166 -64.25 47.625 Z " fill="#DFE2EB" transform="translate(298.5625,-0.375)"/>
<path d="M0 0 C0.84304688 -0.03996094 1.68609375 -0.07992187 2.5546875 -0.12109375 C6.40220104 0.71506801 7.80586171 2.29863076 10.125 5.4375 C10.4394119 8.27874515 10.53564572 10.68402241 10.4375 13.5 C10.32326794 18.71614614 10.32326794 18.71614614 12.671875 23.125 C14.6824116 24.0443087 14.6824116 24.0443087 16.8515625 24.65234375 C21.28780741 26.18444895 26.01290858 30.21331716 28.125 34.4375 C28.7061138 41.52708838 28.7061138 41.52708838 26.25 45.375 C22.83278042 48.69171312 20.2428049 48.87849408 15.625 48.87109375 C12.61214253 48.34855128 11.01166316 47.24460824 8.5625 45.4375 C5.57722611 43.23507765 3.55899169 41.96513485 -0.1875 41.8125 C-3.86171546 42.15753116 -3.86171546 42.15753116 -6.3125 44.1875 C-8.36888274 47.06246372 -8.36888274 47.06246372 -8.875 50.4375 C-7.94351748 54.1389061 -7.94351748 54.1389061 -5.875 57.4375 C-3.06221683 58.91421117 -0.51852495 59.34947064 2.609375 59.77734375 C11.57747937 61.10735923 18.82281627 64.0943667 24.5625 71.375 C30.57134141 79.82325165 31.18982837 88.43994477 30.125 98.4375 C28.93488569 102.16841391 27.31860167 105.20785323 25.125 108.4375 C24.568125 109.345 24.01125 110.2525 23.4375 111.1875 C21.125 113.4375 21.125 113.4375 18.6875 114.5390625 C15.66571947 115.93835292 13.48978544 117.07271456 11.125 119.4375 C10.35436563 123.3253071 10.31241707 126.95155604 10.2890625 130.91015625 C10.1386566 134.14388302 10.02057403 135.77502765 8.1875 138.375 C4.4276978 140.90711168 1.97287109 141.23791016 -2.49609375 140.96484375 C-6.15901755 140.15286557 -7.75331465 138.44892437 -9.875 135.4375 C-11.12632444 131.88944082 -10.9748153 128.41902999 -10.9375 124.6875 C-10.92847656 123.51703125 -10.91945313 122.3465625 -10.91015625 121.140625 C-10.89855469 120.24859375 -10.88695312 119.3565625 -10.875 118.4375 C-11.62007813 118.32535156 -12.36515625 118.21320313 -13.1328125 118.09765625 C-20.2533616 116.38344999 -27.07717541 109.52317072 -30.875 103.4375 C-31.90933563 99.91015029 -31.6518206 97.0013179 -29.98046875 93.63671875 C-27.81762958 90.60585049 -25.96562675 89.46551191 -22.4375 88.375 C-15.89024205 88.48986417 -12.0391579 91.92400568 -7.390625 96.1328125 C-3.94649701 99.09760309 -0.20539516 98.72905136 4.125 98.4375 C5.115 98.1075 6.105 97.7775 7.125 97.4375 C8.01714652 94.76106043 8.26040211 93.18365622 8.25 90.4375 C8.25257813 89.756875 8.25515625 89.07625 8.2578125 88.375 C8.19131126 86.21875219 8.19131126 86.21875219 7.125 83.4375 C3.92652149 82.25545359 0.94161543 81.55095344 -2.43359375 81.08203125 C-11.65536559 79.76089798 -18.64494675 76.43686444 -24.8125 69.3125 C-29.9419639 62.09729664 -31.7596705 53.53759994 -30.4453125 44.8125 C-28.3830666 36.22451707 -23.92544154 29.13660367 -16.6875 24 C-13.875 22.4375 -13.875 22.4375 -10.875 22.4375 C-10.92720703 21.15166016 -10.92720703 21.15166016 -10.98046875 19.83984375 C-11.25894794 8.07741323 -11.25894794 8.07741323 -7.875 2.4375 C-4.72405867 0.33687245 -3.6525634 0.09436714 0 0 Z " fill="#DFE2EB" transform="translate(296.875,39.5625)"/>
<path d="M0 0 C3.00115208 2.00076805 4.46981125 3.47217799 5.66015625 6.90234375 C6.43789432 10.83633922 6.15188188 12.68455303 4.375 16.375 C1.85169554 19.16391545 0.65322782 20.23537092 -3 21 C-7.02351275 20.85882411 -9.22871687 20.62920466 -12.375 18.0625 C-15.00147697 14.72889462 -15.33176845 12.30702986 -15.29296875 8.0390625 C-14.83745033 4.86865433 -13.24684343 3.1807598 -11 1 C-7.51118574 -0.74440713 -3.80666824 -0.56541186 0 0 Z " fill="#DFE2EB" transform="translate(234,330)"/>
</svg>