<svg width="24" height="24" viewBox="0 0 24 24" fill="none" xmlns="http://www.w3.org/2000/svg">
  <path d="M21.81 12.23C21.81 11.55 21.75 10.9 21.64 10.27H12V14.09H17.51C17.27 15.37 16.54 16.45 15.45 17.18V19.66H18.64C20.51 17.94 21.81 15.4 21.81 12.23Z" fill="#4285F4"/>
  <path d="M12 22C14.76 22 17.07 21.09 18.64 19.66L15.45 17.18C14.56 17.78 13.43 18.14 12 18.14C9.34 18.14 7.08 16.35 6.3 13.94H3V16.49C4.56 19.59 7.98 22 12 22Z" fill="#34A853"/>
  <path d="M6.3 13.94C6.1 13.34 5.99 12.69 5.99 12C5.99 11.31 6.1 10.66 6.3 10.06V7.51H3C2.35 8.8 1.99 10.35 1.99 12C1.99 13.65 2.35 15.2 3 16.49L6.3 13.94Z" fill="#FBBC05"/>
  <path d="M12 5.86C13.56 5.86 14.96 6.4 16.06 7.45L18.71 4.8C17.07 3.28 14.76 2.36 12 2.36C7.98 2.36 4.56 4.77 3 7.51L6.3 10.06C7.08 7.65 9.34 5.86 12 5.86Z" fill="#EA4335"/>
</svg>
