<svg xmlns="http://www.w3.org/2000/svg" version="1.1" width="512" height="512">
<path d="M0 0 C0.76469101 -0.0071553 1.52938202 -0.01431061 2.31724548 -0.02168274 C4.84166445 -0.03857367 7.36430839 -0.01916674 9.88867188 0.00219727 C11.64457343 0.00136859 13.40047492 -0.00109072 15.15637207 -0.00511169 C18.83511729 -0.00796995 22.51325375 0.00673372 26.19189453 0.03417969 C30.90666924 0.06826289 35.62035538 0.06224474 40.33518219 0.04351711 C43.96064318 0.03294696 47.585851 0.041885 51.21128845 0.05690193 C52.94961292 0.06208412 54.68796382 0.06160148 56.42628479 0.05535698 C58.85638243 0.04990442 61.2849235 0.07027899 63.71484375 0.09765625 C64.43288681 0.09113037 65.15092987 0.08460449 65.89073181 0.07788086 C68.9447997 0.13636858 70.98164339 0.37949897 73.54318619 2.094594 C76.24354718 5.87000829 75.89907666 9.19391988 75.83843994 13.72991943 C75.84185764 14.66030352 75.84527534 15.5906876 75.84879661 16.54926515 C75.85539761 19.67418643 75.83336242 22.79825325 75.81152344 25.9230957 C75.81039544 28.16011027 75.81102788 30.39712631 75.81329346 32.63414001 C75.81444339 38.71441688 75.79088855 44.79437955 75.76299763 50.87458324 C75.73803069 57.22604476 75.73564569 63.5775131 75.730896 69.92901611 C75.7198671 80.59198092 75.69486457 91.25482131 75.65917969 101.91772461 C75.62246264 112.90046613 75.59414941 123.88317629 75.57714844 134.8659668 C75.57609754 135.5429639 75.57504665 136.219961 75.57396391 136.91747317 C75.56874375 140.31377461 75.56368892 143.71007627 75.5587163 147.10637808 C75.51725056 175.28136693 75.44650155 203.45622804 75.35742188 231.63110352 C76.51790039 231.61539307 77.67837891 231.59968262 78.87402344 231.58349609 C83.18270924 231.52916427 87.49136481 231.49474161 91.80029297 231.46630859 C93.66460259 231.45122938 95.52887679 231.43076291 97.39306641 231.40478516 C100.0739822 231.36836355 102.75442867 231.35136861 105.43554688 231.33813477 C106.68419525 231.31490898 106.68419525 231.31490898 107.95806885 231.29121399 C111.49328917 231.29018766 113.74087249 231.29265726 116.88183594 233.0168457 C118.79226941 235.10681694 118.8952786 236.26247405 118.85742188 239.06860352 C118.86773438 239.83043945 118.87804687 240.59227539 118.88867188 241.37719727 C118.1300735 244.59566243 116.99395347 245.62829577 114.35742188 247.63110352 C111.44671707 248.02301406 108.91525173 248.16866293 106.00524902 248.13446808 C105.1508917 248.14028184 104.29653437 248.1460956 103.41628742 248.15208554 C100.53375323 248.16676323 97.65206021 248.15276418 94.76953125 248.13903809 C92.69002596 248.14364393 90.61052393 248.1499947 88.53102875 248.15794706 C82.80130744 248.17470699 77.07185125 248.16636377 71.34212875 248.15400219 C65.16890377 248.14498122 58.99572556 248.15890671 52.82250977 248.16992188 C41.42303503 248.18671238 30.02366885 248.18521253 18.62419677 248.174276 C8.09410059 248.16422286 -2.43596446 248.16158272 -12.96606445 248.16636658 C-13.66392777 248.16667212 -14.36179109 248.16697766 -15.08080178 248.16729246 C-17.91349302 248.16853776 -20.74618425 248.16981136 -23.57887545 248.17113151 C-50.16415753 248.18337384 -76.74938549 248.17226366 -103.33465922 248.15074392 C-126.96597368 248.13176079 -150.59720192 248.13345927 -174.22851562 248.15258789 C-200.76445591 248.17399577 -227.30034836 248.1825057 -253.83629608 248.17013884 C-256.66389464 248.16885592 -259.49149322 248.16760456 -262.3190918 248.16636658 C-263.01534395 248.16605027 -263.71159609 248.16573396 -264.42894679 248.16540806 C-274.95370224 248.16085376 -285.47842316 248.16618746 -296.00317383 248.17628479 C-307.96755122 248.18770589 -319.93182676 248.18451041 -331.89620018 248.16316181 C-338.00498614 248.15262223 -344.11359678 248.14857904 -350.22238159 248.16175842 C-355.80836447 248.17362796 -361.39400855 248.1672099 -366.97996044 248.14584821 C-369.00681312 248.14135899 -371.03369409 248.14369994 -373.06052876 248.15335137 C-375.80423464 248.16541991 -378.54676217 248.15313813 -381.29040527 248.13446808 C-382.48581326 248.14851508 -382.48581326 248.14851508 -383.7053709 248.16284585 C-387.27712544 248.11387612 -389.25331901 247.92954474 -392.12918854 245.72464323 C-393.75908579 243.46993323 -394.21045454 242.38383049 -394.20507812 239.63110352 C-394.22699219 238.97110352 -394.24890625 238.31110352 -394.27148438 237.63110352 C-393.25552546 234.40022795 -391.47622998 233.418795 -388.64257812 231.63110352 C-385.6994 231.0948785 -382.82511945 231.16400554 -379.84179688 231.24047852 C-379.00542191 231.24613831 -378.16904694 231.2517981 -377.30732727 231.25762939 C-374.64765102 231.27994084 -371.98934408 231.33012563 -369.33007812 231.38110352 C-367.52215494 231.40117536 -365.71421053 231.41942494 -363.90625 231.43579102 C-359.48450202 231.47978825 -355.06377188 231.54877806 -350.64257812 231.63110352 C-350.6453435 231.05426252 -350.64810888 230.47742153 -350.65095806 229.88310051 C-350.71726111 215.83605534 -350.76687969 201.78903367 -350.79801464 187.74186516 C-350.81347216 180.94870249 -350.83454019 174.15564438 -350.86889648 167.36254883 C-350.90203377 160.80734779 -350.91942976 154.2522146 -350.92720985 147.69693375 C-350.93275463 145.19547948 -350.9435821 142.69403118 -350.9597683 140.19262314 C-350.98153229 136.69005209 -350.9845454 133.18793048 -350.9831543 129.68530273 C-350.99394012 128.65024094 -351.00472595 127.61517914 -351.01583862 126.54875183 C-350.99273411 121.17572486 -350.75635646 117.23583716 -347.64257812 112.63110352 C-344.63408608 111.12685749 -341.52787444 111.46633982 -338.22705078 111.45410156 C-337.46265182 111.44753036 -336.69825287 111.44095917 -335.91069031 111.43418884 C-333.37600614 111.41444527 -330.8413812 111.40279178 -328.30664062 111.39282227 C-327.00952211 111.38670897 -327.00952211 111.38670897 -325.68619919 111.38047218 C-321.11046334 111.35960829 -316.53475752 111.34530719 -311.95898438 111.3359375 C-307.22859186 111.32486406 -302.49866859 111.29045455 -297.76844215 111.2507658 C-294.13448195 111.2246463 -290.50063442 111.21624991 -286.86658859 111.21265602 C-285.12264202 111.20777902 -283.37870084 111.19613344 -281.63484573 111.17761803 C-279.1951479 111.15332192 -276.75667579 111.15417348 -274.31689453 111.16113281 C-273.59570938 111.14832275 -272.87452423 111.1355127 -272.13148499 111.12231445 C-269.06612569 111.15421082 -266.894583 111.4938096 -264.1913147 112.96656799 C-261.6502765 117.33831633 -262.1218078 121.77186197 -262.18847656 126.73364258 C-262.18789246 127.86564087 -262.18730835 128.99763916 -262.18670654 130.16394043 C-262.18949499 133.9085142 -262.22062461 137.65229366 -262.25195312 141.39672852 C-262.25941276 143.99175583 -262.265107 146.58678877 -262.269104 149.18182373 C-262.28282012 155.31588668 -262.31435063 161.44962144 -262.35450196 167.58356071 C-262.39922563 174.56776073 -262.42120815 181.55197446 -262.4412837 188.53628206 C-262.48308385 202.901401 -262.55643367 217.2661837 -262.64257812 231.63110352 C-254.39257812 231.63110352 -246.14257812 231.63110352 -237.64257812 231.63110352 C-237.64701935 229.66277054 -237.65146057 227.69443756 -237.65603638 225.66645813 C-237.69688318 207.14039465 -237.72665924 188.6143371 -237.74620247 170.08823872 C-237.75651741 160.56320226 -237.77058192 151.03819884 -237.79345703 141.51318359 C-237.81338422 133.21170648 -237.82629298 124.91025328 -237.83075511 116.60875291 C-237.83336363 112.21270835 -237.83949933 107.81673224 -237.85403824 103.42070961 C-237.86761153 99.28313757 -237.87180127 95.14566218 -237.86879349 91.00806999 C-237.86934376 89.48952331 -237.87332273 87.97097341 -237.88098907 86.45244598 C-237.89094647 84.37840106 -237.88854426 82.30472055 -237.88308716 80.23066711 C-237.88493074 79.07012975 -237.88677433 77.90959238 -237.88867378 76.71388721 C-237.63868169 73.58229373 -237.06335273 71.42067374 -235.64257812 68.63110352 C-231.67175679 65.34673876 -228.29853102 65.25636364 -223.25366211 65.25878906 C-222.52783936 65.2551384 -221.8020166 65.25148773 -221.05419922 65.24772644 C-218.66544887 65.23964914 -216.27738285 65.25320572 -213.88867188 65.26782227 C-212.22388204 65.26834116 -210.55909159 65.26782233 -208.89430237 65.26631165 C-205.40999166 65.26640124 -201.92591296 65.27680526 -198.44165039 65.29492188 C-193.97713476 65.31762625 -189.51295742 65.31814857 -185.04839993 65.31140423 C-181.6125844 65.30806206 -178.17684591 65.31469872 -174.741045 65.32453346 C-173.09482285 65.32838014 -171.44859213 65.32953588 -169.80236626 65.32794762 C-167.50211135 65.3275765 -165.20228942 65.34020917 -162.90209961 65.35644531 C-160.9394944 65.3633564 -160.9394944 65.3633564 -158.9372406 65.3704071 C-155.82881088 65.6163675 -154.12894761 65.79701188 -151.64257812 67.63110352 C-149.36972915 71.10967308 -149.39565429 74.09369438 -149.40206909 78.18634033 C-149.40036024 78.84312641 -149.39865139 79.49991249 -149.39689076 80.17660117 C-149.39359883 82.37541378 -149.40459444 84.57392062 -149.41552734 86.77270508 C-149.41609152 88.34962965 -149.41577477 89.92655474 -149.41464233 91.503479 C-149.41406808 95.78414332 -149.42583415 100.06469575 -149.43979025 104.34533405 C-149.45228549 108.81898241 -149.45346716 113.29263327 -149.45584106 117.76629639 C-149.46205938 126.23768731 -149.47847496 134.70902668 -149.49854004 143.18039489 C-149.5208881 152.8247951 -149.53188972 162.46919776 -149.54193091 172.11361742 C-149.56284087 191.95280902 -149.59842615 211.79195121 -149.64257812 231.63110352 C-141.39257812 231.63110352 -133.14257812 231.63110352 -124.64257812 231.63110352 C-124.65368118 229.77552322 -124.66478424 227.91994293 -124.67622375 226.00813293 C-124.7774759 208.54167865 -124.85278468 191.07528361 -124.90163898 173.60860157 C-124.9274244 164.62827076 -124.96258126 155.64815898 -125.01977539 146.66796875 C-125.06960017 138.84112979 -125.10186669 131.01444945 -125.1130206 123.18745631 C-125.11954099 119.04275324 -125.13487226 114.89850397 -125.17122841 110.7539463 C-125.20517362 106.85261423 -125.21563431 102.95192273 -125.20811653 99.050457 C-125.20949177 97.61895834 -125.21943384 96.18743821 -125.2386055 94.75606728 C-125.26351235 92.80053345 -125.25451396 90.84465568 -125.24385071 88.88899231 C-125.24845967 87.79482404 -125.25306864 86.70065577 -125.25781727 85.57333088 C-124.43215437 81.62480453 -122.75011433 80.11966618 -119.64257812 77.63110352 C-116.88548324 77.13503531 -114.74398502 76.9445707 -111.99414062 76.98413086 C-111.24066345 76.97536926 -110.48718628 76.96660767 -109.71087646 76.95758057 C-107.22918494 76.93563853 -104.7492866 76.95011913 -102.26757812 76.96704102 C-100.53791971 76.96367134 -98.80826361 76.95881747 -97.07861328 76.95254517 C-93.45712699 76.94518094 -89.83625815 76.95586438 -86.21484375 76.97924805 C-81.57739108 77.00773613 -76.94138521 76.99132966 -72.3039856 76.96138573 C-68.73336933 76.94330026 -65.16309494 76.94907638 -61.59246826 76.96202469 C-59.88287178 76.96535528 -58.17324406 76.9612838 -56.46368408 76.94962692 C-54.07196085 76.93689681 -51.6825658 76.95632139 -49.29101562 76.98413086 C-48.58748962 76.9740097 -47.88396362 76.96388855 -47.15911865 76.95346069 C-43.52807374 77.03150692 -41.81984485 77.4891456 -38.95960712 79.77966785 C-36.2149909 83.15731076 -36.0232253 84.59674388 -36.04130554 88.88899231 C-36.03099556 90.77986572 -36.03099556 90.77986572 -36.02047729 92.7089386 C-36.03817074 94.09812001 -36.05634476 95.48729536 -36.07495117 96.87646484 C-36.07636215 98.34516349 -36.0755687 99.81386566 -36.07273865 101.28256226 C-36.07130498 105.263854 -36.10068599 109.24439143 -36.13560843 113.22550797 C-36.16688051 117.38814859 -36.16980333 121.5508068 -36.17573547 125.71354675 C-36.19127147 133.59359961 -36.23229645 141.47330533 -36.28248292 149.35320538 C-36.33838412 158.32529016 -36.36586481 167.29739159 -36.3909601 176.26960719 C-36.44321267 194.72364151 -36.53215806 213.17733188 -36.64257812 231.63110352 C-28.39257812 231.63110352 -20.14257812 231.63110352 -11.64257812 231.63110352 C-11.65146057 228.81086136 -11.66034302 225.9906192 -11.66949463 223.08491516 C-11.74907672 197.22771664 -11.80879926 171.37053112 -11.84683944 145.51323708 C-11.85184232 142.12487266 -11.8570196 138.73650852 -11.86230469 135.34814453 C-11.86335393 134.67357714 -11.86440317 133.99900976 -11.86548421 133.30400094 C-11.88289342 122.37890437 -11.91443392 111.45389193 -11.95118931 100.52884529 C-11.98858443 89.32023596 -12.0105115 78.11166868 -12.0189321 66.90299386 C-12.02415376 60.60658939 -12.03645412 54.31037576 -12.06549835 48.01403236 C-12.09260248 42.09040637 -12.10103315 36.16705026 -12.09500885 30.24336815 C-12.09611132 28.06688853 -12.10409472 25.89040009 -12.11940002 23.713974 C-12.13924929 20.7463856 -12.13453547 17.7798213 -12.12359619 14.81221008 C-12.13524756 13.94741998 -12.14689892 13.08262987 -12.15890336 12.191634 C-12.11893109 8.19047537 -11.92465452 6.10291487 -9.82834244 2.59654617 C-6.74714372 -0.17407249 -3.94801663 -0.06428723 0 0 Z M4.35742188 16.63110352 C4.35742188 87.58110352 4.35742188 158.53110352 4.35742188 231.63110352 C22.50742187 231.63110352 40.65742188 231.63110352 59.35742188 231.63110352 C59.35742188 160.68110352 59.35742188 89.73110352 59.35742188 16.63110352 C41.20742188 16.63110352 23.05742187 16.63110352 4.35742188 16.63110352 Z M-220.64257812 82.63110352 C-220.64257812 131.80110352 -220.64257812 180.97110352 -220.64257812 231.63110352 C-202.82257813 231.63110352 -185.00257813 231.63110352 -166.64257812 231.63110352 C-166.64257812 182.46110352 -166.64257812 133.29110352 -166.64257812 82.63110352 C-184.46257812 82.63110352 -202.28257812 82.63110352 -220.64257812 82.63110352 Z M-108.64257812 93.63110352 C-108.64257812 139.17110352 -108.64257812 184.71110352 -108.64257812 231.63110352 C-90.49257813 231.63110352 -72.34257812 231.63110352 -53.64257812 231.63110352 C-53.64257812 186.09110352 -53.64257812 140.55110352 -53.64257812 93.63110352 C-71.79257812 93.63110352 -89.94257813 93.63110352 -108.64257812 93.63110352 Z M-333.64257812 127.63110352 C-333.64257812 161.95110352 -333.64257812 196.27110352 -333.64257812 231.63110352 C-315.82257813 231.63110352 -298.00257813 231.63110352 -279.64257812 231.63110352 C-279.64257812 197.31110352 -279.64257812 162.99110352 -279.64257812 127.63110352 C-297.46257812 127.63110352 -315.28257812 127.63110352 -333.64257812 127.63110352 Z " fill="#DEE2EA" transform="translate(393.642578125,223.368896484375)"/>
<path d="M0 0 C3.66748239 3.03432683 7.01147421 6.33435182 10.33789062 9.73535156 C11.00433594 10.36957031 11.67078125 11.00378906 12.35742188 11.65722656 C24.21172653 23.75236359 29.33789062 42.23326752 29.33789062 58.73535156 C28.036074 79.3406678 20.79863548 96.69765668 5.80664062 111.18066406 C-9.91347746 124.82017828 -28.84353023 130.30535732 -49.35888672 128.95849609 C-68.31401638 127.12205466 -84.94808339 117.86151379 -97.41210938 103.54785156 C-109.78391239 87.71726491 -113.90696797 69.52815697 -112.66210938 49.73535156 C-110.31008534 31.73403376 -101.84503906 14.39572751 -87.66210938 2.73535156 C-62.53471599 -15.56352881 -25.96055334 -19.75259494 0 0 Z M-84.66210938 23.92675781 C-94.65293123 35.96311431 -97.72619665 49.38209237 -96.66210938 64.73535156 C-94.55935717 78.95985174 -87.6509103 91.47474975 -76.66210938 100.73535156 C-64.53724083 109.62877101 -50.7833509 113.76148841 -35.70898438 112.48535156 C-23.97154564 110.60736137 -14.82945897 106.26721156 -5.66210938 98.73535156 C-5.01371094 98.21328125 -4.3653125 97.69121094 -3.69726562 97.15332031 C6.16289673 88.32165561 11.65256817 74.99699507 12.61132812 62.04003906 C13.00229599 47.15318563 8.89921426 33.79584213 -0.97460938 22.42285156 C-12.30981133 10.63424153 -25.48992095 3.89272392 -41.97460938 3.42285156 C-59.34857496 3.76629042 -73.1010156 11.25923123 -84.66210938 23.92675781 Z " fill="#DFE2EB" transform="translate(467.662109375,53.2646484375)"/>
<path d="M0 0 C2.84545762 1.76614611 3.01955037 3.07540858 3.875 6.375 C4.02010003 10.58290091 3.43793195 11.65742663 1 15 C-1.57421875 17.21875 -1.57421875 17.21875 -4.6875 19.5 C-5.85970858 20.37280753 -7.03020291 21.2479208 -8.19921875 22.125 C-8.81716309 22.58777344 -9.43510742 23.05054688 -10.07177734 23.52734375 C-13.44624811 26.10455414 -16.71809972 28.806592 -20 31.5 C-25.80533103 36.24962823 -31.69110854 40.8585679 -37.65625 45.40625 C-41.49887601 48.36211616 -45.24734915 51.43126843 -49 54.5 C-54.89128629 59.31350929 -60.83456788 64.03716891 -66.89453125 68.63671875 C-69.03591781 70.26632739 -71.1549622 71.90933323 -73.26171875 73.58203125 C-74.32020411 74.40899292 -75.37879392 75.23582092 -76.4375 76.0625 C-77.36433594 76.79597656 -78.29117188 77.52945313 -79.24609375 78.28515625 C-82.40770919 80.25387849 -84.29022676 80.73568764 -88 81 C-90.54198215 80.26794862 -92.75893658 79.48557887 -95.16796875 78.44921875 C-95.86384094 78.16380722 -96.55971313 77.87839569 -97.27667236 77.58433533 C-99.58638197 76.63276833 -101.88666074 75.66029747 -104.1875 74.6875 C-105.81922136 74.01029811 -107.45147617 73.33438032 -109.08422852 72.65966797 C-113.47740641 70.83954525 -117.86249717 69.00068315 -122.24584961 67.15704346 C-125.96513775 65.59453691 -129.68803159 64.0407264 -133.411026 62.48707581 C-136.22759502 61.31142375 -139.04343222 60.13403372 -141.85913086 58.95629883 C-145.55878213 57.40909262 -149.26027727 55.86642018 -152.96313477 54.3269043 C-160.45822743 51.2046522 -167.9313011 48.07536611 -175.29296875 44.6484375 C-176.30883057 44.18872559 -177.32469238 43.72901367 -178.37133789 43.25537109 C-180.1224379 42.45705952 -181.8597382 41.62717836 -183.57592773 40.75634766 C-185.85147424 39.73602756 -187.50711312 39.09894267 -190 39 C-193.45149501 40.45377511 -196.12060273 42.63693029 -199 45 C-200.40010437 46.01116859 -201.80628194 47.01398748 -203.21875 48.0078125 C-204.64683284 49.04550086 -206.07388578 50.08460779 -207.5 51.125 C-213.49435917 55.47573449 -219.50725527 59.79686486 -225.5625 64.0625 C-226.25996338 64.55387451 -226.95742676 65.04524902 -227.67602539 65.55151367 C-230.48464533 67.52874317 -233.29459012 69.5040854 -236.10449219 71.47949219 C-245.68855636 78.2198841 -255.21890178 85.02906511 -264.7109375 91.8984375 C-269.68629769 95.49853094 -274.66774978 99.08928823 -279.68359375 102.6328125 C-281.97739268 104.25603291 -284.23154324 105.92205913 -286.47265625 107.6171875 C-295.78789896 114.55728163 -295.78789896 114.55728163 -300.5625 114.875 C-304 114 -304 114 -306.5625 111.9375 C-308.47218753 108.03509504 -308.255663 106.13630166 -307 102 C-303.26796572 97.75079243 -298.93902727 94.67673992 -294.3125 91.5 C-292.78709978 90.43844867 -291.26238237 89.37591564 -289.73828125 88.3125 C-288.95533691 87.76722656 -288.17239258 87.22195313 -287.36572266 86.66015625 C-283.54764104 83.98080073 -279.77446923 81.24028358 -276 78.5 C-269.49989159 73.78894437 -262.96135161 69.13701718 -256.39453125 64.51953125 C-251.2343328 60.88545434 -246.1107106 57.20328599 -241 53.5 C-234.51045827 48.7975954 -227.98465848 44.15125313 -221.42749023 39.54370117 C-215.14545329 35.12181129 -208.92046406 30.62266153 -202.7109375 26.09960938 C-201.99292969 25.57818359 -201.27492188 25.05675781 -200.53515625 24.51953125 C-199.899729 24.05651611 -199.26430176 23.59350098 -198.60961914 23.11645508 C-194.89481267 20.53981167 -191.38963112 20.54362609 -187 21 C-184.04475333 21.81618245 -181.30088918 22.99597406 -178.5 24.234375 C-177.68659149 24.57989914 -176.87318298 24.92542328 -176.03512573 25.28141785 C-173.35104756 26.42475678 -170.67585007 27.58755122 -168 28.75 C-166.11543696 29.55573565 -164.23016835 30.35982279 -162.34423828 31.16235352 C-158.33554259 32.86924431 -154.32959301 34.58236829 -150.32519531 36.29931641 C-140.59181272 40.46440362 -130.82107025 44.54027912 -121.04882812 48.61315918 C-117.92416265 49.91698594 -114.80178521 51.22617132 -111.6796875 52.53613281 C-109.74227002 53.34590058 -107.8047739 54.15548025 -105.8671875 54.96484375 C-104.5665889 55.51219429 -104.5665889 55.51219429 -103.23971558 56.07060242 C-100.83547398 57.0717103 -98.42239382 58.04373536 -96 59 C-95.18558945 59.33002014 -94.37117889 59.66004028 -93.53208923 60.00006104 C-89.14755064 61.79370393 -89.14755064 61.79370393 -84.63989258 61.22998047 C-84.06392334 60.69775879 -83.4879541 60.16553711 -82.89453125 59.6171875 C-82.2286499 59.03251709 -81.56276855 58.44784668 -80.87670898 57.84545898 C-79.85492554 56.87008179 -79.85492554 56.87008179 -78.8125 55.875 C-77.32166974 54.54925343 -75.82946401 53.22505211 -74.3359375 51.90234375 C-73.60342773 51.23702637 -72.87091797 50.57170898 -72.11621094 49.88623047 C-69.16535679 47.25606213 -66.07307833 44.84144339 -62.9375 42.4375 C-57.8806821 38.505471 -52.8971726 34.49123169 -47.9375 30.4375 C-42.16276082 25.72060213 -36.31173404 21.13691787 -30.375 16.625 C-27.81118518 14.65426042 -25.30594074 12.62151186 -22.8125 10.5625 C-22.09642578 9.97210938 -21.38035156 9.38171875 -20.64257812 8.7734375 C-19.2460505 7.6175149 -17.85388519 6.45629532 -16.46679688 5.2890625 C-11.09050284 0.84046401 -7.1826399 -2.02987649 0 0 Z " fill="#DFE2EB" transform="translate(390,188)"/>
<path d="M0 0 C3.96 0 7.92 0 12 0 C12.33 2.97 12.66 5.94 13 9 C13.63808594 9.13277344 14.27617187 9.26554687 14.93359375 9.40234375 C15.75988281 9.57894531 16.58617187 9.75554687 17.4375 9.9375 C18.26121094 10.11152344 19.08492188 10.28554687 19.93359375 10.46484375 C22 11 22 11 23 12 C23.09886353 13.62252492 23.12971167 15.24947273 23.125 16.875 C23.12886719 18.20144531 23.12886719 18.20144531 23.1328125 19.5546875 C23 22 23 22 22 25 C21.31035156 24.84402344 20.62070312 24.68804687 19.91015625 24.52734375 C13.54357202 23.20861368 8.41644942 22.94812305 2 24 C1.731875 25.216875 1.46375 26.43375 1.1875 27.6875 C1.03667969 28.37199219 0.88585937 29.05648437 0.73046875 29.76171875 C1.17179913 33.42667976 3.21077317 34.7070382 6 37 C8.57268243 38.46284362 11.23862263 39.66502931 13.9375 40.875 C21.273066 44.35844322 25.85405031 47.31792795 29.375 55 C31.18293699 63.67809756 28.83006807 69.66056229 24.125 76.875 C21.62923116 79.37076884 19.25077657 80.65728794 16 82 C15.34 82 14.68 82 14 82 C14 85.3 14 88.6 14 92 C9.71 92 5.42 92 1 92 C1 89.03 1 86.06 1 83 C-0.7015625 82.814375 -0.7015625 82.814375 -2.4375 82.625 C-7.03337785 82.05770917 -11.49901249 81.07315212 -16 80 C-16.97798721 76.20431539 -16.92653069 73.4994001 -16.0625 69.6875 C-15.77052734 68.36298828 -15.77052734 68.36298828 -15.47265625 67.01171875 C-15.31667969 66.34785156 -15.16070312 65.68398437 -15 65 C-13.39566191 65.47859241 -11.79153584 65.95789558 -10.1875 66.4375 C-9.29417969 66.70433594 -8.40085937 66.97117187 -7.48046875 67.24609375 C-5.64526945 67.80387873 -3.81966274 68.39344575 -2 69 C2.29986714 69.41871365 5.95702654 69.41284366 10 67.8125 C12.14367898 66.12618712 12.14367898 66.12618712 13 63.625 C13 60.07433425 12.1982748 58.80630825 10 56 C6.66016761 54.00993474 3.0231141 52.66201136 -0.57617188 51.21484375 C-7.09280786 48.41137436 -11.06715405 44.70972739 -14.35546875 38.3984375 C-16.27316142 31.26229628 -15.58196301 24.39636251 -12 18 C-9.2457742 13.82117464 -6.62196548 11.9090727 -2 10 C-1.34 10 -0.68 10 0 10 C0 6.7 0 3.4 0 0 Z " fill="#DEE2EB" transform="translate(419,65)"/>
</svg>